<svg xmlns="http://www.w3.org/2000/svg" style="display: none;">
    <symbol id="edit" viewBox="-1 0 393 393.15442">
        <path d="m342.402344 14.621094c-19.542969-19.496094-51.171875-19.496094-70.710938 0l-237.089844 237.089844c-2.886718 2.886718-3.726562 7.242187-2.121093 11l-32.050781 117.820312c-.945313 3.472656.050781 7.1875 2.605468 9.722656 2.558594 2.535156 6.28125 3.5 9.746094 2.527344l116.933594-32.867188c3.746094 1.574219 8.070312.722657 10.941406-2.148437l237.089844-237.089844c19.523437-19.527343 19.523437-51.183593 0-70.710937zm-84.601563 42.167968 77.351563 78.195313-201.570313 201.566406-77.769531-77.769531zm-209.246093 223.019532 64.121093 64.117187-88.316406 24.828125zm315.046874-173.273438-14.304687 14.304688-77.351563-78.191406 13.886719-13.882813c11.726563-11.699219 30.703125-11.699219 42.429688 0l35.34375 35.34375c11.695312 11.722656 11.695312 30.703125-.003907 42.425781zm0 0"/>
    </symbol>
    <symbol id="add-new" viewBox="-26 0 477 477.96064">
        <path d="m335.769531 235.914062v-127.589843c0-2.78125-1.15625-5.433594-3.191406-7.324219l-105.84375-98.324219c-1.847656-1.71875-4.28125-2.675781-6.804687-2.675781h-175.449219c-24.289063.0273438-43.972657 19.710938-44 44v335.792969c.027343 24.289062 19.710937 43.972656 44 44h155.382812c30.578125 45.125 87.140625 64.835937 139.140625 48.488281s87.109375-64.882812 86.363282-119.386719c-.746094-54.503906-37.167969-102.0625-89.597657-116.980469zm-105.097656-202.285156 70.976563 65.9375h-46.976563c-13.246094-.015625-23.984375-10.753906-24-24zm-186.191406 370.164063c-13.25-.015625-23.984375-10.753907-24-24v-335.792969c.015625-13.25 10.75-23.984375 24-24h166.191406v55.566406c.027344 24.289063 19.710937 43.972656 44 44h61.101563v112.417969c-34.90625-3.925781-69.832032 7.210937-96.023438 30.621094-26.191406 23.410156-41.160156 56.875-41.15625 92-.015625 16.925781 3.46875 33.671875 10.234375 49.1875zm257.503906 54.207031c-57.101563 0-103.394531-46.292969-103.394531-103.394531 0-57.101563 46.292968-103.394531 103.394531-103.394531 57.105469 0 103.394531 46.292968 103.394531 103.394531-.0625 57.078125-46.316406 103.328125-103.394531 103.394531zm0 0"/><path d="m354.488281 342.945312h-40.84375v-40.84375c0-5.523437-4.476562-10-10-10-5.523437 0-10 4.476563-10 10v40.84375h-40.84375c-5.523437 0-10 4.476563-10 10 0 5.523438 4.476563 10 10 10h40.84375v46.375c0 5.523438 4.476563 10 10 10 5.523438 0 10-4.476562 10-10v-46.375h40.84375c5.523438 0 10-4.476562 10-10 0-5.519531-4.476562-10-10-10zm0 0"/>
    </symbol>
    <symbol id="delete" viewBox="-60 0 467 467.00061">
        <path d="m232.601562 404.199219c5.523438 0 10-4.476563 10-10v-199c0-5.523438-4.476562-10-10-10-5.523437 0-10 4.476562-10 10v199c0 5.523437 4.476563 10 10 10zm0 0"/><path d="m113.800781 404.199219c5.523438 0 10-4.476563 10-10v-199c0-5.523438-4.476562-10-10-10-5.523437 0-10 4.476562-10 10v199c0 5.523437 4.476563 10 10 10zm0 0"/><path d="m306.398438 52.800781h-48.796876v-12.800781c-.027343-22.082031-17.921874-39.9765625-40-40h-88.800781c-22.082031.0234375-39.976562 17.917969-40 40v12.800781h-48.800781c-22.082031.023438-39.9765625 17.917969-40 40v56c0 5.523438 4.476562 10 10 10h18.601562v255.199219c0 14.5625 5.136719 27.984375 14.464844 37.800781 9.234375 9.761719 22.097656 15.265625 35.535156 15.199219h189.199219c13.4375.066406 26.300781-5.4375 35.53125-15.199219 9.332031-9.8125 14.46875-23.238281 14.46875-37.800781v-255.199219h18.597657c5.523437 0 10-4.476562 10-10v-56c-.023438-22.082031-17.917969-39.976562-40-40zm-197.597657-12.800781c.011719-11.039062 8.960938-19.988281 20-20h88.800781c11.039063.011719 19.984376 8.960938 20 20v12.800781h-128.800781zm189 374c0 18.8125-12.902343 33-30 33h-189.199219c-17.101562 0-30-14.1875-30-33v-255.199219h249.199219zm28.597657-275.199219h-306.398438v-46c.011719-11.042969 8.960938-19.988281 20-20h266.398438c11.042968.011719 19.988281 8.957031 20 20zm0 0"/>
    </symbol>
    <symbol id="cross" viewBox="0 0 52 52">
        <path d="M26,0C11.664,0,0,11.663,0,26s11.664,26,26,26s26-11.663,26-26S40.336,0,26,0z M26,50C12.767,50,2,39.233,2,26 S12.767,2,26,2s24,10.767,24,24S39.233,50,26,50z"/><path d="M35.707,16.293c-0.391-0.391-1.023-0.391-1.414,0L26,24.586l-8.293-8.293c-0.391-0.391-1.023-0.391-1.414,0 s-0.391,1.023,0,1.414L24.586,26l-8.293,8.293c-0.391,0.391-0.391,1.023,0,1.414C16.488,35.902,16.744,36,17,36 s0.512-0.098,0.707-0.293L26,27.414l8.293,8.293C34.488,35.902,34.744,36,35,36s0.512-0.098,0.707-0.293 c0.391-0.391,0.391-1.023,0-1.414L27.414,26l8.293-8.293C36.098,17.316,36.098,16.684,35.707,16.293z"/>
    </symbol>
</svg>