<svg xmlns="http://www.w3.org/2000/svg" style="display: none;">
    <symbol id="check-symbol" viewBox="0 0 448.8 448.8">
        <polygon points="142.8,323.85 35.7,216.75 0,252.45 142.8,395.25 448.8,89.25 413.1,53.55 "/>
    </symbol>
    <symbol id="question-sign" viewBox="0 0 28 28">
        <path d="M5.99845 2.12548C6.36245 2.57348 6.54317 3.10169 6.54317 3.71005C6.54317 4.14533 6.41841 4.56405 6.17025 4.96876C6.03405 5.19784 5.85465 5.41933 5.63061 5.63056L4.88481 6.36748C4.16953 7.07005 3.70753 7.69236 3.49625 8.23712C3.28497 8.78056 3.17933 9.49712 3.17933 10.3855H4.83897C4.83897 9.60277 4.92805 9.01092 5.10497 8.61C5.28184 8.20908 5.66877 7.72041 6.26569 7.14128C7.08656 6.3458 7.63133 5.74256 7.90113 5.33272C8.17092 4.92288 8.30713 4.38836 8.30713 3.72908C8.30713 2.6422 7.93933 1.74872 7.20241 1.04872C6.46553 0.348719 5.48553 -3.35095e-08 4.26113 -3.35095e-08C2.93748 -3.35095e-08 1.89641 0.408516 1.13784 1.22564C0.379281 2.04276 -1.45208e-07 3.122 -1.45208e-07 4.46472H1.65964C1.69016 3.65652 1.81876 3.038 2.04148 2.60908C2.43856 1.83908 3.15641 1.45344 4.19492 1.45344C5.03369 1.45348 5.63569 1.67748 5.99845 2.12548Z" transform="translate(9.41812 7.06488)" fill="#EC3156"/>
        <path d="M28 14C28 6.26816 21.7318 0 14 0C6.26816 0 0 6.26816 0 14C0 21.7318 6.26816 28 14 28C21.7318 28 28 21.7318 28 14ZM1.27272 14C1.27272 6.97072 6.97072 1.27272 14 1.27272C21.0293 1.27272 26.7273 6.97072 26.7273 14C26.7273 21.0293 21.0293 26.7273 14 26.7273C6.97072 26.7273 1.27272 21.0293 1.27272 14Z" fill="#3EC6F4"/>
        <path d="M1.85564 0H0V1.93836H1.85564V0Z" transform="translate(12.5593 18.9967)" fill="#EC3156"/>
    </symbol>
    <symbol id="increment" viewBox="0 0 21 21">
        <path d="M20.5 10.5C20.5 16.0228 16.0228 20.5 10.5 20.5C4.97715 20.5 0.5 16.0228 0.5 10.5C0.5 4.97715 4.97715 0.5 10.5 0.5C16.0228 0.5 20.5 4.97715 20.5 10.5Z" stroke="#45C7EC" fill="currentColor"/>
        <path d="M0.8 12C0.4 12 -1.90735e-07 11.6 -1.90735e-07 11.2V0.8C-1.90735e-07 0.4 0.4 0 0.8 0C1.2 0 1.6 0.4 1.6 0.8V11.2C1.6 11.6 1.2 12 0.8 12Z" transform="translate(9.7 4.5)" />
        <path d="M0 0.8C0 0.4 0.4 -1.90735e-07 0.8 -1.90735e-07H11.2C11.6 -1.90735e-07 12 0.4 12 0.8C12 1.2 11.6 1.6 11.2 1.6H0.8C0.4 1.6 0 1.2 0 0.8Z" transform="translate(4.5 9.7)" />
    </symbol>
    <symbol id="decrement" viewBox="0 0 21 21">
        <path d="M20.5 10.5C20.5 16.0228 16.0228 20.5 10.5 20.5C4.97715 20.5 0.5 16.0228 0.5 10.5C0.5 4.97715 4.97715 0.5 10.5 0.5C16.0228 0.5 20.5 4.97715 20.5 10.5Z" stroke="#45C7EC" fill="currentColor" />
        <path d="M0 0.8C0 0.4 0.4 -1.90735e-07 0.8 -1.90735e-07H11.2C11.6 -1.90735e-07 12 0.4 12 0.8C12 1.2 11.6 1.6 11.2 1.6H0.8C0.4 1.6 0 1.2 0 0.8Z" transform="translate(4.5 9.7)" />
    </symbol>
    <symbol id="large-plus" viewBox="0 0 357 357">
        <path d="M357,204H204v153h-51V204H0v-51h153V0h51v153h153V204z"/>
    </symbol>
</svg>