<svg xmlns="http://www.w3.org/2000/svg" style="display: none;">
    <symbol id="edit" viewBox="-1 0 393 393.15442">
        <path d="m342.402344 14.621094c-19.542969-19.496094-51.171875-19.496094-70.710938 0l-237.089844 237.089844c-2.886718 2.886718-3.726562 7.242187-2.121093 11l-32.050781 117.820312c-.945313 3.472656.050781 7.1875 2.605468 9.722656 2.558594 2.535156 6.28125 3.5 9.746094 2.527344l116.933594-32.867188c3.746094 1.574219 8.070312.722657 10.941406-2.148437l237.089844-237.089844c19.523437-19.527343 19.523437-51.183593 0-70.710937zm-84.601563 42.167968 77.351563 78.195313-201.570313 201.566406-77.769531-77.769531zm-209.246093 223.019532 64.121093 64.117187-88.316406 24.828125zm315.046874-173.273438-14.304687 14.304688-77.351563-78.191406 13.886719-13.882813c11.726563-11.699219 30.703125-11.699219 42.429688 0l35.34375 35.34375c11.695312 11.722656 11.695312 30.703125-.003907 42.425781zm0 0"/>
    </symbol>
    <symbol id="add-new" viewBox="-26 0 477 477.96064">
        <path d="m335.769531 235.914062v-127.589843c0-2.78125-1.15625-5.433594-3.191406-7.324219l-105.84375-98.324219c-1.847656-1.71875-4.28125-2.675781-6.804687-2.675781h-175.449219c-24.289063.0273438-43.972657 19.710938-44 44v335.792969c.027343 24.289062 19.710937 43.972656 44 44h155.382812c30.578125 45.125 87.140625 64.835937 139.140625 48.488281s87.109375-64.882812 86.363282-119.386719c-.746094-54.503906-37.167969-102.0625-89.597657-116.980469zm-105.097656-202.285156 70.976563 65.9375h-46.976563c-13.246094-.015625-23.984375-10.753906-24-24zm-186.191406 370.164063c-13.25-.015625-23.984375-10.753907-24-24v-335.792969c.015625-13.25 10.75-23.984375 24-24h166.191406v55.566406c.027344 24.289063 19.710937 43.972656 44 44h61.101563v112.417969c-34.90625-3.925781-69.832032 7.210937-96.023438 30.621094-26.191406 23.410156-41.160156 56.875-41.15625 92-.015625 16.925781 3.46875 33.671875 10.234375 49.1875zm257.503906 54.207031c-57.101563 0-103.394531-46.292969-103.394531-103.394531 0-57.101563 46.292968-103.394531 103.394531-103.394531 57.105469 0 103.394531 46.292968 103.394531 103.394531-.0625 57.078125-46.316406 103.328125-103.394531 103.394531zm0 0"/><path d="m354.488281 342.945312h-40.84375v-40.84375c0-5.523437-4.476562-10-10-10-5.523437 0-10 4.476563-10 10v40.84375h-40.84375c-5.523437 0-10 4.476563-10 10 0 5.523438 4.476563 10 10 10h40.84375v46.375c0 5.523438 4.476563 10 10 10 5.523438 0 10-4.476562 10-10v-46.375h40.84375c5.523438 0 10-4.476562 10-10 0-5.519531-4.476562-10-10-10zm0 0"/>
    </symbol>
    <symbol id="delete" viewBox="-60 0 467 467.00061">
        <path d="m232.601562 404.199219c5.523438 0 10-4.476563 10-10v-199c0-5.523438-4.476562-10-10-10-5.523437 0-10 4.476562-10 10v199c0 5.523437 4.476563 10 10 10zm0 0"/><path d="m113.800781 404.199219c5.523438 0 10-4.476563 10-10v-199c0-5.523438-4.476562-10-10-10-5.523437 0-10 4.476562-10 10v199c0 5.523437 4.476563 10 10 10zm0 0"/><path d="m306.398438 52.800781h-48.796876v-12.800781c-.027343-22.082031-17.921874-39.9765625-40-40h-88.800781c-22.082031.0234375-39.976562 17.917969-40 40v12.800781h-48.800781c-22.082031.023438-39.9765625 17.917969-40 40v56c0 5.523438 4.476562 10 10 10h18.601562v255.199219c0 14.5625 5.136719 27.984375 14.464844 37.800781 9.234375 9.761719 22.097656 15.265625 35.535156 15.199219h189.199219c13.4375.066406 26.300781-5.4375 35.53125-15.199219 9.332031-9.8125 14.46875-23.238281 14.46875-37.800781v-255.199219h18.597657c5.523437 0 10-4.476562 10-10v-56c-.023438-22.082031-17.917969-39.976562-40-40zm-197.597657-12.800781c.011719-11.039062 8.960938-19.988281 20-20h88.800781c11.039063.011719 19.984376 8.960938 20 20v12.800781h-128.800781zm189 374c0 18.8125-12.902343 33-30 33h-189.199219c-17.101562 0-30-14.1875-30-33v-255.199219h249.199219zm28.597657-275.199219h-306.398438v-46c.011719-11.042969 8.960938-19.988281 20-20h266.398438c11.042968.011719 19.988281 8.957031 20 20zm0 0"/>
    </symbol>
    <symbol id="cross" viewBox="0 0 52 52">
        <path d="M26,0C11.664,0,0,11.663,0,26s11.664,26,26,26s26-11.663,26-26S40.336,0,26,0z M26,50C12.767,50,2,39.233,2,26 S12.767,2,26,2s24,10.767,24,24S39.233,50,26,50z"/><path d="M35.707,16.293c-0.391-0.391-1.023-0.391-1.414,0L26,24.586l-8.293-8.293c-0.391-0.391-1.023-0.391-1.414,0 s-0.391,1.023,0,1.414L24.586,26l-8.293,8.293c-0.391,0.391-0.391,1.023,0,1.414C16.488,35.902,16.744,36,17,36 s0.512-0.098,0.707-0.293L26,27.414l8.293,8.293C34.488,35.902,34.744,36,35,36s0.512-0.098,0.707-0.293 c0.391-0.391,0.391-1.023,0-1.414L27.414,26l8.293-8.293C36.098,17.316,36.098,16.684,35.707,16.293z"/>
    </symbol>
    <symbol id="user" viewBox="0 0 456 456.33491">
        <path d="m228.167969 0c-92.21875 0-175.355469 55.550781-210.644531 140.75-35.289063 85.195312-15.785157 183.261719 49.421874 248.472656 57.558594 57.796875 141.609376 80.441406 220.414063 59.382813 78.804687-21.054688 140.355469-82.609375 161.414063-161.410157 21.054687-78.804687-1.589844-162.855468-59.386719-220.414062-42.664063-42.898438-100.71875-66.945312-161.21875-66.78125zm-123.25 395.441406v-19.730468c0-68.066407 55.179687-123.25 123.25-123.25 68.070312 0 123.25 55.183593 123.25 123.25v19.730468c-73.269531 54.078125-173.230469 54.078125-246.5 0zm266.5-16.765625v-2.964843c0-78.984376-64.261719-143.246094-143.25-143.246094s-143.25 64.261718-143.25 143.246094v2.964843c-41.363281-39.199219-64.78125-93.6875-64.75-150.675781 0-114.691406 93.308593-208 208-208 114.691406 0 208 93.308594 208 208 .027343 56.988281-23.386719 111.476562-64.753907 150.675781zm0 0"/><path d="m228.621094 67.148438c-42.695313 0-77.308594 34.613281-77.308594 77.308593 0 42.695313 34.613281 77.308594 77.308594 77.308594 42.695312 0 77.308594-34.613281 77.308594-77.308594-.050782-42.675781-34.632813-77.257812-77.308594-77.308593zm0 134.617187c-31.648438 0-57.308594-25.660156-57.308594-57.308594 0-31.652343 25.660156-57.308593 57.308594-57.308593 31.652344 0 57.308594 25.65625 57.308594 57.308593-.035157 31.636719-25.671876 57.273438-57.308594 57.308594zm0 0"/>
    </symbol>
    <symbol id="back" viewBox="0 0 489 489">
        <path d="M429.4,255.033c-35.4-43.1-102.1-94.4-219.7-98.8v-79.8c0-4.7-2.7-9.1-7-11.1s-9.4-1.4-13,1.6L4.5,219.633 c-2.8,2.3-4.5,5.8-4.5,9.4c0,3.7,1.6,7.1,4.4,9.4l185.2,153.3c3.7,3,8.7,3.7,13,1.6c4.3-2,7-6.3,7-11.1v-79.5 c76.8,0.3,194.2,6,256.5,115.9c2.2,3.9,6.3,6.2,10.7,6.2c1,0,2.1-0.1,3.1-0.4c5.4-1.4,9.1-6.3,9.1-11.8 C489.1,371.533,473.4,308.633,429.4,255.033z M197.4,278.233L197.4,278.233c-3.3,0-6.4,1.3-8.7,3.6s-3.6,5.4-3.6,8.7v65.7 l-153.5-127.1l153.6-126.7v65.7c0,6.7,5.4,12.2,12.1,12.3c176,1.7,241.6,109,260.7,184.4 C382.2,278.333,268.7,278.233,197.4,278.233z"/>
    </symbol>
    <symbol id="gta" viewBox="0 0 511.999 511.999">
        <g> <g> <path d="M284.585,252.019h-2.6c-1.104,0-2,0.895-2,2v6.055c0,1.104,0.895,2,2,2h2.6c1.104,0,2-0.896,2-2v-6.055 C286.585,252.914,285.689,252.019,284.585,252.019z"/> </g> </g><g> <g> <path d="M234.246,172.59h-2.127c-1.105,0-2,0.895-2,2v6.05c0,1.104,0.895,2,2,2h2.127c1.105,0,2-0.896,2-2v-6.05 C236.246,173.486,235.351,172.59,234.246,172.59z"/> </g> </g><g> <g> <path d="M109.585,143.878h-2.599c-1.104,0-2,0.896-2,2v34.763c0,1.104,0.896,2,2,2h2.599c1.104,0,2-0.896,2-2v-34.763 C111.585,144.774,110.69,143.878,109.585,143.878z"/> </g> </g><g> <g> <path d="M173.682,145.878c0-1.104-0.896-2-2-2h-2.129c-1.104,0-2,0.896-2,2v6.054c0,1.104,0.896,2,2,2 C174.549,153.932,173.682,153.61,173.682,145.878z"/> </g> </g><g> <g> <path d="M359.383,143.878h-2.599c-1.105,0-2,0.896-2,2v34.763c0,1.104,0.895,2,2,2h2.599c1.104,0,2-0.896,2-2v-34.763 C361.383,144.774,360.487,143.878,359.383,143.878z"/> </g> </g><g> <g> <path d="M441.714,224.892h-28.05v-2.261c0-0.796-0.316-1.559-0.879-2.121c-0.563-0.562-1.325-0.879-2.121-0.879l-80.248,0.002 l-0.68,0.022c-5.881,0.337-10.87,1.813-14.834,4.389c-4.153-2.929-9.486-4.413-15.856-4.413c-33.515,0-39.371-1.072-47.278,4.145 c-4.168-2.75-9.469-4.145-15.761-4.145h-6.281v-5.556h104.058v0.002c0.681,0,1.335-0.23,1.86-0.646 c4.457,0.862,2.092,0.646,60.436,0.646c1.657,0,3-1.343,3-3V95.829c0-1.657-1.343-3-3-3h-44.472c-1.657,0-3,1.343-3,3v16.14 h-5.814c-6.693,0-12.256,1.576-16.537,4.686c-7.348-4.788-13.753-5.283-22.372-4.24c-0.471-0.29-1.015-0.445-1.573-0.445 c-47.875,0-45.303-0.291-46.486,0.68c-4.381-0.895-4.777-0.68-38.163-0.68c-6.287,0-11.588,1.395-15.76,4.146 c-8.387-5.527-8.253-4.146-109.376-4.146c-18.627,0-25.237,12.165-25.237,22.582v57.417c0,0.877,0.048,1.766,0.141,2.643 l0.073,0.69c-0.141,0.353-0.214,0.729-0.214,1.111v38.585c0,1.657,1.344,3,3,3h40.279v28.585c0,1.657,1.343,3,3,3h3.115v31.484 c0,3.237,0.676,9.285,5.042,14.484c-17.105,0.782-23.209,12.443-23.209,22.359c0,25.404-0.182,24.387,0.307,25.383 c-0.426,2.952-0.307,0.456-0.307,33.47c0,10.337,6.562,22.405,25.057,22.405c57.435,0,54.112,0.309,55.314-0.721 c2.219,0.479,4.659,0.721,7.254,0.721c32.822,0,40.885,1.503,49.077-5.818c4.296,3.861,10.257,5.818,17.725,5.818 c33.598,0,39.285,1.088,47.043-4.227c7.768,5.322,13.5,4.227,47.043,4.227c18.495,0,25.058-12.069,25.058-22.405V337.91 c0-8.372-4.412-18.354-16.758-21.452V289.2h7.861v11.866c0,10.418,6.609,22.582,25.237,22.582h31.517 c18.261,0,24.767-11.666,24.767-22.582v-73.174C444.714,226.235,443.371,224.892,441.714,224.892z M330.836,134.551 c0-3.994,1.239-9.306,11.957-9.306h16.089c1.657,0,3-1.343,3-3v-16.141h23.92v94.694h-43.01c-10.598,0-11.957-4.717-11.957-8.827 V134.551z M268.267,125.246L268.267,125.246h23.449c0,3.089,2.635,3.968,4.371,3.075c3.972-2.04,9.083-3.075,15.189-3.075 c2.657,0,5.365,0.923,8.05,2.742c2.631,1.785,3.91,3.932,3.91,6.562v66.247h-23.921v-54.42c0-1.657-1.343-3-3-3h-1.599 c-1.657,0-3,1.343-3,3v54.42h-23.449V125.246z M248.707,125.246c10.721,0,11.96,5.311,11.96,9.306v66.247H217.66 c-10.602,0-11.961-4.717-11.961-8.827v-28.713c0-5.856,4.024-8.827,11.961-8.827h16.086c1.657,0,3-1.343,3-3v-5.054 c0-1.657-1.343-3-3-3h-1.127c-1.657,0-3,1.343-3,3v1.786h-23.919C205.699,121.757,201.841,125.246,248.707,125.246z M143.132,125.246h43.01c10.722,0,11.961,5.311,11.961,9.306v20.575c0,5.27-4.004,5.109-3.957,8.125 c0.014,0.937,0.464,1.814,1.218,2.37c1.869,1.379,2.739,3.214,2.739,5.773v32.672c0,1.657,1.344,3,3,3h15.346v22.836 c0,1.657,1.343,3,3,3h16.557v0.001c10.721,0,11.961,5.313,11.961,9.31v68.157h-23.92v-55.852c0-1.657-1.343-3-3-3h-1.598 c-1.657,0-3,1.343-3,3v55.852h-23.448v-82.647c0-1.657-1.344-3-3-3h-3.857c-2.214,0-5.066-0.248-7.482-2.187 c-0.059-0.048-0.121-0.094-0.184-0.137c-2.809-1.92-4.293-4.17-4.293-6.507v-40.803c0-1.657-1.344-3-3-3h-1.129 c-1.657,0-3,1.343-3,3v25.708h-23.92V125.246z M148.809,214.075h12.095v1.818c0,1.241,0.127,2.496,0.379,3.738h-12.754 C148.852,217.493,148.809,216.111,148.809,214.075z M80.564,224.725v-17.656h28.522c4.042,0,3.934-6.27,0-6.27H92.525 c-10.602,0-11.962-4.717-11.962-8.827v-57.42c0-3.994,1.239-9.306,11.962-9.306h43.008v90.648c0,4.111-1.359,8.831-11.96,8.831 H80.564z M166.582,406.076h-43.01c-10.721,0-11.961-5.314-11.961-9.311v-29.666c0-5.856,4.024-8.827,11.961-8.827h16.559 c1.657,0,3-1.343,3-3v-5.533c0-1.657-1.343-3-3-3h-1.599c-1.656,0-3,1.343-3,3v1.786h-23.92c0-26.401-3.871-22.922,43.011-22.922 c10.72,0,11.96,5.313,11.96,9.31V406.076z M141.921,310.372c-10.721,0-11.96-5.31-11.96-9.305v-41.763c0-1.657-1.344-3-3-3h-3.116 v-18.135h3.116c1.656,0,3-1.343,3-3v-2.265h23.919v2.265c0,1.657,1.344,3,3,3h28.048v18.135H156.88c-1.656,0-3,1.343-3,3v29.936 c0,1.657,1.344,3,3,3h1.597c1.656,0,3-1.343,3-3v-26.666h23.45v38.492c0,6.261-3.758,9.305-11.488,9.305H141.921z M295.95,351.524 h-28.046c-1.657,0-3,1.343-3,3v30.413c0,1.657,1.343,3,3,3h1.596c1.657,0,3-1.343,3-3v-26.666h23.449v38.492 c0,6.266-3.758,9.311-11.49,9.311h-31.517c-10.185,0-11.49-4.977-11.49-9.311v-42.24c0-1.657-1.343-3-3-3h-6.303 c-1.657,0-3,1.343-3,3v42.24c0,6.266-3.758,9.311-11.489,9.311h-31.52c-10.185,0-11.49-4.977-11.49-9.311v-68.162h23.45v56.335 c0,1.657,1.344,3,3,3h1.598c1.657,0,3-1.343,3-3v-56.335h23.449v1.786c0,1.657,1.343,3,3,3h6.303c1.657,0,3-1.343,3-3v-1.786 h23.45v1.786c0,1.657,1.343,3,3,3h28.046V351.524z M267.526,310.371c-10.721,0-11.961-5.31-11.961-9.305v-58.853 c0-3.996,1.24-9.31,11.961-9.31h31.519c7.731,0,11.491,3.045,11.491,9.31v38.492h-28.051c-1.657,0-3,1.343-3,3v5.533 c0,1.657,1.343,3,3,3h1.6c1.657,0,3-1.343,3-3v-1.786h23.45C310.536,314.081,314.19,310.371,267.526,310.371z M358.99,337.911 v58.854c0,3.996-1.24,9.311-11.961,9.311h-31.52c-7.731,0-11.49-3.045-11.49-9.311v-58.854c0-6.264,3.758-9.31,11.49-9.31h31.52 C357.75,328.602,358.99,333.915,358.99,337.911z M364.165,251.518h-19.114c-1.657,0-3,1.343-3,3v0.267c0,1.657,1.343,3,3,3h19.113 v18.138h-19.113c-1.657,0-3,1.343-3,3v31.446h-23.447v-68.156h0c0-5.728,4.013-8.86,11.841-9.305l33.721-0.005V251.518z M431.434,256.305h-28.047c-1.657,0-3,1.343-3,3v29.936c0,1.657,1.343,3,3,3h1.596c1.657,0,3-1.343,3-3v-26.666h23.45v38.492 c0,4.332-1.306,9.305-11.488,9.305h-31.519c-10.721,0-11.961-5.31-11.961-9.305v-41.763c0-1.657-1.343-3-3-3h-3.116v-18.135h3.116 c1.657,0,3-1.343,3-3v-2.265h23.92v2.265c0,1.657,1.343,3,3,3h28.047V256.305z"/> </g> </g><g> <g> <path d="M332.568,347.238h-2.598c-1.105,0-2,0.896-2,2v36.199c0,1.104,0.896,2,2,2h2.598c1.104,0,2-0.896,2-2v-36.199 C334.568,348.134,333.672,347.238,332.568,347.238z"/> </g> </g><g> <g> <path d="M140.632,376.904h-2.599c-1.105,0-2,0.896-2,2v6.533c0,1.104,0.895,2,2,2h2.599c1.104,0,2-0.896,2-2v-6.533 C142.632,377.799,141.736,376.904,140.632,376.904z"/> </g> </g><g> <g> <path d="M504.499,256.538c-4.142,0-7.5,3.357-7.5,7.5v213.434c0,10.768-8.76,19.526-19.526,19.526H34.528 c-10.767,0-19.526-8.76-19.526-19.526V34.527c0-10.767,8.76-19.526,19.526-19.526h203.97c4.142,0,7.5-3.358,7.5-7.5 c0-4.143-3.358-7.5-7.5-7.5H34.528C15.49,0,0.001,15.489,0.001,34.527v442.945c0,19.038,15.489,34.527,34.527,34.527h442.943 c19.038,0,34.527-15.489,34.527-34.527V264.038C511.999,259.896,508.641,256.538,504.499,256.538z"/> </g> </g><g> <g> <path d="M477.471,0h-203.97c-4.142,0-7.5,3.357-7.5,7.5c0,4.142,3.358,7.5,7.5,7.5h203.97c10.767,0,19.526,8.76,19.526,19.526 v194.509c0,4.143,3.358,7.5,7.5,7.5s7.5-3.357,7.5-7.5V34.527C511.999,15.489,496.509,0,477.471,0z"/> </g> </g>
    </symbol>
</svg>